<svg width="1024" height="1024" viewBox="0 0 1024 1024" fill="none" xmlns="http://www.w3.org/2000/svg">
<circle cx="512" cy="512" r="512" fill="white"/>
<circle cx="512" cy="512" r="497" fill="#151515"/>
<circle cx="510.5" cy="513.5" r="470.5" fill="#151515"/>
<ellipse cx="510" cy="514" rx="441" ry="445" fill="#151515"/>
<ellipse cx="510.5" cy="514.5" rx="412.5" ry="416.5" fill="#151515"/>
<ellipse cx="511" cy="514.5" rx="372" ry="375.5" fill="#151515"/>
<ellipse cx="509.5" cy="513" rx="335.5" ry="339" fill="#151515"/>
<path fill-rule="evenodd" clip-rule="evenodd" d="M940.408 648.175L940.382 648.174C940.384 648.168 940.386 648.163 940.387 648.158L940.408 648.175ZM620.432 949.601L620.734 949.935C772.602 911.801 893.847 796.519 940.382 648.174L552.677 624.642L620.453 949.596L620.432 949.601ZM439.587 749.098L411.247 616.058L295.745 609.048L341.753 640.63L439.587 749.098ZM64.4937 450.308L64.8946 450.336C64.8841 450.411 64.8736 450.486 64.8631 450.562L64.4937 450.308ZM304.119 113.163C177.166 178.857 85.4722 303.201 64.8946 450.336L380.668 472.511L304.119 113.163ZM304.296 113.071L304.056 112.87L304.119 113.163C304.178 113.132 304.237 113.102 304.296 113.071ZM476.126 257.617L523.032 482.509L763.548 499.399L476.126 257.617Z" fill="#C4C4C4" fill-opacity="0.5"/>
<ellipse cx="507.5" cy="513" rx="295.5" ry="299" fill="#151515"/>
<ellipse cx="511" cy="514.5" rx="254" ry="257.5" fill="#151515"/>
<path d="M636 512C636 581.588 579.588 638 510 638C440.412 638 384 581.588 384 512C384 442.412 440.412 386 510 386C579.588 386 636 442.412 636 512Z" fill="#585858"/>
<path d="M527 512C527 520.284 520.284 527 512 527C503.716 527 497 520.284 497 512C497 503.716 503.716 497 512 497C520.284 497 527 503.716 527 512Z" fill="white"/>
</svg>
